<svg width="1600" height="876" viewBox="0 0 1600 876" fill="none" xmlns="http://www.w3.org/2000/svg" preserveAspectRatio="none">
<path d="M46.7959 14.7973H0.525797L0 790.669L21.5577 810.399H63.6214H110.943H279.724V800.041H348.603L367.532 810.399H522.642L643.575 867.615H721.393L725.074 876H816.037V867.615H1104.17L1111.01 861.203L1143.08 867.615H1352.35V849.365H1439.11L1490.11 867.615H1600V91.25L1570.56 73H1415.97L1406.51 60.1757H1348.14L1305.55 73H1098.92L1064.21 85.3311L1049.49 80.8919V73H924.351L888.071 63.1351H780.808V73H644.627L533.5 0H499.5H465H323.891V19.2365L243.5 0H171H95H46.7959V14.7973Z" fill="#322E3C"/>
</svg>
