<svg width="63" height="63" viewBox="0 0 63 63" fill="none" xmlns="http://www.w3.org/2000/svg">
<path d="M10.0996 57.3C11.1996 56.9 11.9996 55.9 11.9996 54.6C11.9996 53.1 10.7996 52.2 8.59961 52.2H3.69961L1.59961 62.7H6.89961C9.59961 62.7 11.5996 61.6 11.5996 59.4C11.4996 58.3 10.9996 57.6 10.0996 57.3ZM8.09961 53.7C9.29961 53.7 9.89961 54.1 9.89961 54.9C9.89961 56.1 8.99961 56.6 7.49961 56.6H4.79961L5.39961 53.7H8.09961V53.7ZM6.99961 61.2H3.89961L4.49961 58.2H7.69961C8.89961 58.2 9.59961 58.5 9.59961 59.5C9.59961 60.6 8.59961 61.2 6.99961 61.2ZM18.2996 62.8C22.1996 62.8 24.6996 60 24.6996 56.5C24.6996 53.8 22.7996 52 19.6996 52C15.7996 52 13.2996 54.8 13.2996 58.3C13.2996 61 15.0996 62.8 18.2996 62.8ZM18.3996 61.1C16.2996 61.1 15.1996 59.9 15.1996 58.2C15.1996 55.8 16.8996 53.7 19.4996 53.7C21.5996 53.7 22.6996 54.9 22.6996 56.6C22.7996 59.1 21.0996 61.1 18.3996 61.1ZM30.8996 62.8C34.7996 62.8 37.2996 60 37.2996 56.5C37.2996 53.8 35.3996 52 32.2996 52C28.3996 52 25.8996 54.8 25.8996 58.3C25.8996 61 27.6996 62.8 30.8996 62.8ZM31.0996 61.1C28.9996 61.1 27.8996 59.9 27.8996 58.2C27.8996 55.8 29.4996 53.7 32.1996 53.7C34.2996 53.7 35.3996 54.9 35.3996 56.6C35.3996 59.1 33.6996 61.1 31.0996 61.1ZM41.6996 62.8C44.4996 62.8 46.2996 61.5 46.2996 59.4C46.2996 56.2 40.9996 57.2 40.9996 55.2C40.9996 54.3 41.8996 53.6 43.4996 53.6C44.4996 53.6 45.5996 53.9 46.2996 54.4L47.0996 52.9C46.1996 52.3 44.8996 52 43.5996 52C40.8996 52 38.9996 53.3 38.9996 55.4C38.9996 58.8 44.2996 57.8 44.2996 59.7C44.2996 60.6 43.2996 61.2 41.7996 61.2C40.4996 61.2 39.2996 60.8 38.3996 60.1L37.5996 61.6C38.4996 62.3 40.0996 62.8 41.6996 62.8ZM49.6996 62.7H51.5996L53.3996 53.8H56.8996L57.1996 52.2H48.2996L47.9996 53.8H51.4996L49.6996 62.7Z" fill="white"/>
<path d="M0 19.7L7.4 17.2L8.6 37.4L30.8 30L23.9 40.5L1.7 47.9L0 19.7Z" fill="url(#paint0_linear_931_10)"/>
<path d="M59.6004 24.7L62.4004 32.7L42.8004 26.7L37.2004 35.7L50.3004 39.7L51.2004 38.2L46.3004 36.7L43.5004 28.7L61.5004 34.2L53.0004 47.7L26.9004 39.7L40.0004 18.7L59.6004 24.7Z" fill="url(#paint1_linear_931_10)"/>
<path d="M26.6 29.1L20.1 31.3L18.5 6.7L37.9 0L44.9 4.8L25.5 11.5L26.6 29.1ZM27.2 12.7L38.5 8.8L45.5 13.6L27.7 19.7L27.2 12.7Z" fill="url(#paint2_linear_931_10)"/>
<defs>
<linearGradient id="paint0_linear_931_10" x1="5.8265" y1="7.56095" x2="20.2477" y2="50.9914" gradientUnits="userSpaceOnUse">
<stop stop-color="#AA67FF"/>
<stop offset="1" stop-color="#96C7DC"/>
</linearGradient>
<linearGradient id="paint1_linear_931_10" x1="51.48" y1="13.8174" x2="39.8305" y2="51.8671" gradientUnits="userSpaceOnUse">
<stop stop-color="#D1A4FF"/>
<stop offset="1" stop-color="#A088FF" stop-opacity="0.78"/>
</linearGradient>
<linearGradient id="paint2_linear_931_10" x1="24.898" y1="-4.0846" x2="39.8579" y2="39.5451" gradientUnits="userSpaceOnUse">
<stop stop-color="#7190FF"/>
<stop offset="1" stop-color="white" stop-opacity="0.28"/>
</linearGradient>
</defs>
</svg>
