<svg width="1600" height="432" viewBox="0 0 1600 432" fill="none" xmlns="http://www.w3.org/2000/svg" preserveAspectRatio="none">
<path d="M45.9709 367.5L39.1017 373H0V10H71.8626L82.9591 17.5L104.624 10H320.211V0H412.153L428.534 10H517.305L643.065 70.5H673.184H780.449V62H853.369V70.5H960.634L1085.34 11H1171.47L1222.72 14.5L1363.8 11H1449.93L1453.63 14.5H1492.73L1496.43 11H1547.16V6H1558.78L1562.48 11H1600V373H1081.64L957.464 432H638.838L515.192 373H480.845L471.334 385H225.627L199.736 373H148.481L137.384 367.5H45.9709Z" fill="black"/>
</svg>
