<svg width="1600" height="384" viewBox="0 0 1600 384" fill="none" xmlns="http://www.w3.org/2000/svg"  preserveAspectRatio="none">
<path d="M70.8526 9.987H0V371.516H38.0701L44.9438 366.023H136.418L147.521 371.516H199.339L224.719 383.501L470.059 384L479.577 372.515L511.302 371.516V370.018L526.636 367.022L600.661 330.07H625.512L642.432 310.096H772.505V316.088H857.634L868.209 310.096H961.269L1043.75 348.546L1047.46 359.532L1088.17 369.02L1090.81 372.016L1600 371.516L1599.47 10.9857H1562.46L1558.76 5.9922H1547.65V10.9857H1496.36L1492.66 14.4811H1453.01L1449.83 10.9857H1390.09L1302.31 12.4837L1221.94 14.4811L1173.3 10.9857H1085L960.212 70.4083H852.346V61.9194H780.436V69.909L642.432 70.4083L516.59 9.987L427.759 10.4863L411.188 0H319.894V9.987H103.635L81.9564 17.4772L70.8526 9.987Z" fill="#473D4B"/>
</svg>
