<svg width="1600" height="387" viewBox="0 0 1600 387" fill="none" xmlns="http://www.w3.org/2000/svg" preserveAspectRatio="none">
<path d="M516.606 328.076H1.05645H0V51.4335H136.283L185.408 0H352.856H543.018L556.223 11.9845L662.925 9.9871L693.034 0H873.688V10.9858H935.49V0H1024.23H1107.69H1264.58L1292.57 10.9858L1326.91 0H1387.12V5.4929H1509.67V0H1566.72L1597.89 24.4684L1600 328.575H1466.89V323.582H1441.53L1436.78 328.575H1290.46L1285.7 336.066H1177.42L1170.02 328.575H1083.92L957.148 387H871.047L856.784 376.514H777.55V387H717.861L698.845 373.517V387H640.211L516.606 328.076Z" fill="black"/>
</svg>
