<svg width="1600" height="449" viewBox="0 0 1600 449" fill="none" xmlns="http://www.w3.org/2000/svg" preserveAspectRatio="none">
<path d="M34.9437 60H0V380H61.4163H147.187H270.549L275.844 369.5H423.031L436.797 380H519.921L642.224 438.5H679.285H854.533H994.308L1022.37 429H1164.79L1170.09 438.5H1222.5H1353.81L1368.63 449H1474.52L1483.52 438.5H1600V76.5L1573.53 59H1405.69L1371.28 40.5H1303.51L1273.33 59H1085.9L1070.02 55.5L1044.61 49.5L1041.43 38.5L958.306 0H865.122L855.063 6H769.821V0H639.047L621.575 20H597.22L522.568 57L507.214 60V63.5H472.27H292.257L288.551 54.5H201.191L186.367 60H145.599L142.422 63.5H101.655L94.7717 60H63.5341V57H39.7088L34.9437 60Z" fill="#473D4B"/>
</svg>
